<svg xmlns="http://www.w3.org/2000/svg" xmlns:xlink="http://www.w3.org/1999/xlink" width="80" height="80" viewBox="0 0 80 80">
  <defs>
    <clipPath id="clip-path">
      <rect id="Retângulo_358" data-name="Retângulo 358" width="54.918" height="41.5" fill="#fff" stroke="#fff" stroke-width="1"/>
    </clipPath>
  </defs>
  <g id="Grupo_518" data-name="Grupo 518" transform="translate(-217 -2483)">
    <g id="Retângulo_359" data-name="Retângulo 359" transform="translate(217 2483)" fill="none" stroke="#fff" stroke-width="2">
      <rect width="80" height="80" stroke="none"/>
      <rect x="1" y="1" width="78" height="78" fill="none"/>
    </g>
    <g id="Grupo_438" data-name="Grupo 438" transform="translate(229.541 2504.939)">
      <g id="Grupo_436" data-name="Grupo 436" clip-path="url(#clip-path)">
        <path id="Caminho_2542" data-name="Caminho 2542" d="M.266,11.572s0,0,0,0l.015.017,5.754,6.592c3.1,3.546,9.444,3.759,13.843,2.158l5.671-2.065L22.6,24.036a.543.543,0,0,0-.056.189.981.981,0,0,0,.24.757,1.1,1.1,0,0,0,.768.38l.028,0,2.87.228a1.5,1.5,0,0,0,.553-.1,1.59,1.59,0,0,0,.742-.541l.05-.061L38.2,13.666,50.87,9.054c2.894-1.091,4.591-4.436,3.9-6.337A4.354,4.354,0,0,0,52.132.43a6.422,6.422,0,0,0-4.48-.051c-.115.041-4.984,1.806-12.067,4.376l-.143.052L19.693,2.821a1.558,1.558,0,0,0-1.442.379l-2,1.968a1.138,1.138,0,0,0-.383.816.976.976,0,0,0,.3.735.578.578,0,0,0,.172.115l6.239,2.639-1.508.547-7.217,2.621-.614.223-10.1-4.69a1.365,1.365,0,0,0-1.572.3L.3,9.957a1.32,1.32,0,0,0-.05,1.6ZM17.025,5.938l2.141-2.109L19.5,3.9l.035.006L33.19,5.624l-2.458.891c-2.207.8-4.391,1.593-6.409,2.327l-.233.085ZM2.5,9.079l10.485,4.873a.548.548,0,0,0,.417.018L27.579,8.827c9.327-3.384,19.9-7.219,20.441-7.419a5.365,5.365,0,0,1,3.721.045,3.392,3.392,0,0,1,2,1.638c.411,1.136-.7,4.012-3.309,4.962L37.579,12.731,26.91,24.243l-.208.281-.344-.033L23.7,24.28,27.78,16.3,19.5,19.312c-3.476,1.264-9.7,1.526-12.645-1.852L1.028,10.788Z" transform="translate(-0.007 0)" fill="#fff" stroke="#fff" stroke-width="1"/>
        <rect id="Retângulo_357" data-name="Retângulo 357" width="54.913" height="1.092" transform="translate(0 40.408)" fill="#fff" stroke="#fff" stroke-width="1"/>
      </g>
    </g>
  </g>
</svg>
