<svg xmlns="http://www.w3.org/2000/svg" width="82" height="82" viewBox="0 0 82 82">
  <g id="Grupo_519" data-name="Grupo 519" transform="translate(-1159.991 -1706.75)">
    <path id="Caminho_39" data-name="Caminho 39" d="M548.04,520.75q-.231,1.032-2.516,2.294a10.834,10.834,0,0,1-4.8,1.375H528.368L515.787,544.6h-3.775l6.177-20.183H502.52l-5.49,7.339h-3.088l3.2-11.008-3.2-11.009h3.088l5.49,7.339h15.669L512.012,496.9h3.775l12.581,20.182H540.72a10.718,10.718,0,0,1,4.689,1.376Q547.7,519.721,548.04,520.75Z" transform="translate(680 1227)" fill="none" stroke="#fff" stroke-linecap="round" stroke-linejoin="round" stroke-width="2"/>
    <rect id="Ret창ngulo_50" data-name="Ret창ngulo 50" width="80" height="80" transform="translate(1160.991 1707.75)" fill="none" stroke="#fff" stroke-linecap="round" stroke-linejoin="round" stroke-width="2"/>
    <rect id="Ret창ngulo_51" data-name="Ret창ngulo 51" width="80" height="80" transform="translate(1160.991 1707.75)" fill="none" stroke="#fff" stroke-linejoin="round" stroke-width="2"/>
  </g>
</svg>
