<svg xmlns="http://www.w3.org/2000/svg" width="82" height="91" viewBox="0 0 82 91">
  <g id="Grupo_517" data-name="Grupo 517" transform="translate(-208 1)">
    <rect id="Retângulo_360" data-name="Retângulo 360" width="80" height="89" transform="translate(209)" fill="none" stroke="#fff" stroke-linejoin="round" stroke-width="2"/>
    <path id="Caminho_2622" data-name="Caminho 2622" d="M45.012,1.258A120.214,120.214,0,0,0,26.52,0,120.21,120.21,0,0,0,8.028,1.258C.068,2.565.068,4.2.068,4.734c0,.367.1.815.872,1.353l1.151.807-1.306.3c-.08.018-.16.035-.239.051s-.18.037-.27.058L0,7.362V7.7c0,3.582.024,7.9.048,12.071v.2C.095,27.95.137,35.49,0,43.759V43.8c.051,1.9,3.027,3.8,7.96,5.043a79.1,79.1,0,0,0,18.523,1.942,79.926,79.926,0,0,0,18.55-1.92c4.916-1.232,7.881-3.111,7.932-5.026V42.2h0l0-30.25h0V9.479h0l-.005-2.124L52.7,7.3c-.093-.02-.186-.039-.278-.057l-1.535-.312,1.2-.829c.787-.544.893-1,.893-1.365,0-.537,0-2.169-7.962-3.476M31.978,1l.506.019c3.488.135,6.708.382,9.569.734l.441.054V5.5l-.543-.072c-3.195-.42-6.392-.718-9.5-.884l-.469-.025Zm-11.261.011.477-.016C22.973.933,24.765.9,26.52.9c1.353,0,2.739.019,4.234.06l.479.013V4.487l-.506-.019c-1.655-.063-3-.1-4.244-.1-1.619-.005-3.339.032-5.259.112l-.508.021ZM9.458,1.957l.436-.06c2.864-.392,6.084-.673,9.571-.835l.509-.024V4.532l-.468.027c-3.214.183-6.41.5-9.5.935l-.547.077ZM1.171,5.214.583,4.74l.57-.5c1.127-1,4.872-1.731,7-2.079l.556-.091V5.692l-.428.067c-1.413.221-2.726.45-4.013.7l-.094.018L4.085,6.45A8.428,8.428,0,0,1,1.171,5.214m32.573,44.5-.464.031c-2.27.151-4.556.228-6.794.228A79.663,79.663,0,0,1,8.469,48.14h0l-.37-.093C.755,46.194.686,44.37.664,43.77v-.039C.8,35.51.755,27.991.71,20.031v-.067C.691,16.9.669,13.1.666,8.523v-.5l.4-.09a114.535,114.535,0,0,1,25.42-2.767c2.209.008,4.494.084,6.791.226l.466.029Zm6.867-.779L40.182,49c-1.608.25-3.346.456-5.168.612l-.525.045V44.318l6.122-1.312Zm0-6.844L34.489,43.4V36.27l6.122-1.312Zm0-8.05-6.122,1.311V28.276l6.122-1.312Zm0-7.991-6.122,1.312V20.106L40.611,18.8Zm0-8.171-6.122,1.312v-7.07l6.122-1.312Zm0-7.99L34.489,11.2V5.476l.521.04c1.722.131,3.457.3,5.157.5l.443.052ZM51.9,7.946l.406.086,0,35.777c-.016.6-.064,2.423-7.4,4.261-.854.214-1.831.421-2.988.632l-.564.1V6.157l.544.072c3.335.441,6.7,1.019,10,1.717m-.034-2.732a8.613,8.613,0,0,1-3.034,1.269l-.09.025-.092-.017c-1.64-.3-3.317-.582-4.984-.823L43.238,5.6V1.9l.549.08c4.23.618,7.182,1.438,8.1,2.251l.569.5Z" transform="translate(222.513 19.108)" fill="#fff" stroke="#fff" stroke-width="1"/>
  </g>
</svg>
