<svg xmlns="http://www.w3.org/2000/svg" width="82" height="82" viewBox="0 0 82 82">
  <g id="Grupo_520" data-name="Grupo 520" transform="translate(-1159.991 -1866.75)">
    <rect id="Retângulo_48" data-name="Retângulo 48" width="80" height="80" transform="translate(1160.991 1867.75)" fill="none" stroke="#fff" stroke-linejoin="round" stroke-width="2"/>
    <path id="Caminho_37" data-name="Caminho 37" d="M551.563,693.546h1.888m-64.921,0h1.888m54.855,1.2a5.663,5.663,0,1,0-5.664,5.662A5.663,5.663,0,0,0,545.273,694.747Zm-27.087,0a5.662,5.662,0,1,0-5.663,5.662A5.662,5.662,0,0,0,518.186,694.747Zm-11.256,0a5.662,5.662,0,1,0-5.662,5.662A5.661,5.661,0,0,0,506.93,694.747Zm32.241-25.566h-8.54v12.011h18.4v-2.151A9.861,9.861,0,0,0,539.171,669.181Zm5.975,24.364h6.416V684.49a3.3,3.3,0,0,0-3.3-3.3H530.63v12.353h3.444m-33.6-32.454H520.58a10.051,10.051,0,1,1,0,20.1H500.469a10.051,10.051,0,1,1,0-20.1Zm-4.735,32.454h-5.318V681.192H530.63v12.353H518.057m-11.068,0H506.8" transform="translate(680 1227)" fill="none" stroke="#fff" stroke-linejoin="round" stroke-width="2"/>
  </g>
</svg>
