<svg xmlns="http://www.w3.org/2000/svg" width="81.5" height="81.5" viewBox="0 0 81.5 81.5">
  <g id="Grupo_697" data-name="Grupo 697" transform="translate(-479.25 -18199.25)">
    <g id="Grupo_688" data-name="Grupo 688" transform="translate(480 18200)">
      <g id="Grupo_678" data-name="Grupo 678">
        <rect id="Retângulo_25" data-name="Retângulo 25" width="80" height="80" fill="none" stroke="#fff" stroke-linejoin="round" stroke-width="1.5"/>
      </g>
      <g id="Grupo_679" data-name="Grupo 679" transform="translate(7.03 10.18)">
        <path id="Caminho_3124" data-name="Caminho 3124" d="M132.629,61.8a22.975,22.975,0,1,0,22.976,22.975A23,23,0,0,0,132.629,61.8Zm0,1.475a21.359,21.359,0,0,1,10.361,2.669,4.271,4.271,0,0,0-2.245,1.443c-.347.719-1.278,1.723-1.6,1.669,0,0-.08-.046-.182-.282-.785-1.82-3.254-4.755-4.543-4.648-.7.052-.972.716-1.209,1.3-.42,1.038-.644,1.268-1.174,1.174a7.8,7.8,0,0,0-5.342,1.245,2.379,2.379,0,0,0-1.063,1.648c-.156,1.542.848,2.633,2.987,3.242,1,.281,1.546-.631,1.949-1.3.28-.466.6-.994.937-1.077a1.131,1.131,0,0,1,.745.216c.23.139.463.277.7.414,1.166.687,2.488,1.464,2.536,2.132.026.351-.329.842-1,1.38-2.768,2.227-3.276,3.231-3.92,4.5-.077.151-.155.307-.241.471a4.265,4.265,0,0,1-3.629,1.638,1.4,1.4,0,0,0-1.526.608c-.461.786,0,1.891.587,2.665.516.681.529,1.057.47,1.094-.4,0-1.364-.328-3.292-2.529-.438-.5-.932-1.021-1.436-1.553-1.553-1.638-3.314-3.5-3.545-4.968-.289-1.831-2-3.216-2.99-3.875a21.48,21.48,0,0,1,17.671-9.277Zm.45,30.052c-.235-.181-.5-.356-.77-.537-1.109-.738-1.836-1.3-1.836-2.314,0-1.9.041-2.6.829-3.274.357-.308,1.441-.609,4.678.841.706.316.729.534.773.932a1.7,1.7,0,0,0,1.435,1.676c.366.1.808.188,1.272.279.9.175,2.4.471,2.662.927.017.031.059.1-.014.311a14.562,14.562,0,0,0-.426,1.594c-.378,1.662-.632,2.4-1.491,2.5-1.68.189-2.549,1.593-3.317,2.832a10.433,10.433,0,0,1-1.1,1.565c-1.181,1.277-2.922,3.56-2.561,5.606l-.261.007a4.173,4.173,0,0,1-.88-3.994c.107-.415.26-.939.43-1.521,1.1-3.763,1.788-6.5.582-7.426Zm1.621,12.846c-.449-1.54,1.507-3.822,2.151-4.519a11.53,11.53,0,0,0,1.274-1.789c.675-1.092,1.26-2.034,2.228-2.143,1.99-.225,2.42-2.116,2.765-3.636a13.453,13.453,0,0,1,.38-1.432,1.789,1.789,0,0,0-.1-1.532c-.6-1.041-2.153-1.346-3.658-1.641-.424-.083-.828-.162-1.163-.254a.733.733,0,0,1-.315-.136,1.307,1.307,0,0,1-.046-.277,2.349,2.349,0,0,0-1.637-2.12c-3.119-1.4-5.1-1.591-6.242-.611C129,87.236,129,88.593,129,90.473s1.442,2.842,2.495,3.542c.242.161.477.317.666.457.453.638-.658,4.434-1.077,5.863-.175.6-.333,1.139-.444,1.568a5.7,5.7,0,0,0,.477,4.31,21.48,21.48,0,0,1-16.959-32.423c.881.589,2.143,1.667,2.332,2.865.3,1.924,2.148,3.871,3.932,5.754.491.518.971,1.024,1.4,1.511,1.813,2.068,3.211,3.032,4.4,3.032a1.465,1.465,0,0,0,1.356-.8c.2-.408.387-1.3-.651-2.665a2.371,2.371,0,0,1-.463-.923l.02,0c1.471.207,4.2-.628,5.142-2.412.09-.17.172-.333.252-.491.585-1.155,1.009-1.99,3.529-4.019a3.222,3.222,0,0,0,1.546-2.636c-.105-1.44-1.637-2.342-3.259-3.3q-.341-.2-.679-.4a2.437,2.437,0,0,0-1.863-.386,3.271,3.271,0,0,0-1.847,1.75,5.065,5.065,0,0,1-.4.605c-1.68-.5-1.856-1.11-1.8-1.638a1.086,1.086,0,0,1,.483-.619,6.46,6.46,0,0,1,4.192-.974c1.82.335,2.489-1.29,2.8-2.071.032-.079.07-.171.106-.256a10.236,10.236,0,0,1,2.927,3.634,1.663,1.663,0,0,0,1.5,1.169h.032c1.42,0,2.692-2,2.914-2.467a8.222,8.222,0,0,1,2.592-1.108,21.661,21.661,0,0,1,6.846,7.511,2.99,2.99,0,0,0-2.019.449,2.224,2.224,0,0,0-.85,2.07,6.368,6.368,0,0,1-1.5,5.128,4.176,4.176,0,0,0-.457,4.067,4.53,4.53,0,0,0,3.5,2.725l.495.08a10.846,10.846,0,0,1,2.905.655A21.548,21.548,0,0,1,134.7,106.171Zm19.162-18.022a17.114,17.114,0,0,0-2.964-.624l-.5-.08a3.069,3.069,0,0,1-2.378-1.837,2.68,2.68,0,0,1,.294-2.64,7.784,7.784,0,0,0,1.774-6.077c-.034-.581.177-.735.247-.786a2.567,2.567,0,0,1,1.964.015,21.453,21.453,0,0,1,1.559,12.03Zm-8.815,22.7a.737.737,0,0,1-.372.974,29.334,29.334,0,0,1-8.271,2.322.838.838,0,0,1-.095.006.738.738,0,0,1-.093-1.469,27.881,27.881,0,0,0,7.856-2.206.737.737,0,0,1,.975.373ZM119.59,59.009a.737.737,0,0,1,.349-.983,29.394,29.394,0,0,1,8.485-2.563.738.738,0,1,1,.209,1.461,27.886,27.886,0,0,0-8.06,2.434.736.736,0,0,1-.983-.349Zm13.777,54.634a.737.737,0,0,1-.738.738,29.637,29.637,0,0,1-29.584-28.7l-2.367,2.367L99.635,87l4.125-4.125L107.884,87l-1.043,1.043-2.32-2.32a28.162,28.162,0,0,0,28.109,27.181.737.737,0,0,1,.737.737Zm32.207-31.458-4.125,4.125-4.125-4.125,1.043-1.043,2.361,2.361a28.165,28.165,0,0,0-28.1-26.863.738.738,0,0,1,0-1.475,29.641,29.641,0,0,1,29.575,28.3l2.327-2.327Z" transform="translate(-99.635 -55.165)" fill="#fff" stroke="#fff" stroke-width="0.5"/>
      </g>
    </g>
  </g>
</svg>
