<svg xmlns="http://www.w3.org/2000/svg" width="81.795" height="81.795" viewBox="0 0 81.795 81.795">
  <g id="Grupo_424" data-name="Grupo 424" transform="translate(-840.196 -1547.218)">
    <rect id="Retângulo_31" data-name="Retângulo 31" width="79.795" height="79.795" transform="translate(841.196 1548.218)" fill="none" stroke="#fff" stroke-linejoin="round" stroke-width="2"/>
    <path id="Caminho_7" data-name="Caminho 7" d="M175.089,357.869l5.968,23.844a7.011,7.011,0,0,0,2.345,3.618,6.352,6.352,0,0,0,4.156,1.49h26.963a6.356,6.356,0,0,0,4.156-1.49,6.776,6.776,0,0,0,2.451-3.618l5.969-23.844m-15.773,6.99a2.557,2.557,0,1,0,2.557-2.555A2.542,2.542,0,0,0,211.324,364.859Zm-20.462,0a2.557,2.557,0,1,0-2.558,2.554A2.549,2.549,0,0,0,190.862,364.859Z" transform="translate(680 1227)" fill="none" stroke="#fff" stroke-linejoin="round" stroke-width="2"/>
    <path id="Caminho_8" data-name="Caminho 8" d="M193.3,335.168l-12.546,22.438m28.127-22.438,12.546,22.438m-48.373,0H229.13" transform="translate(680 1227)" fill="none" stroke="#fff" stroke-linejoin="round" stroke-width="2"/>
  </g>
</svg>
