<svg xmlns="http://www.w3.org/2000/svg" width="82" height="82" viewBox="0 0 82 82">
  <g id="Grupo_563" data-name="Grupo 563" transform="translate(-819 -1839)">
    <rect id="Retângulo_48" data-name="Retângulo 48" width="80" height="80" transform="translate(820 1840)" fill="none" stroke="blue" stroke-linejoin="round" stroke-width="2"/>
    <g id="Grupo_560" data-name="Grupo 560" transform="translate(836.513 1849.908)">
      <g id="Grupo_561" data-name="Grupo 561">
        <path id="Caminho_2623" data-name="Caminho 2623" d="M338.482,5.54h-4.808V.732a.732.732,0,0,0-1.464,0V5.54H327.4A.732.732,0,0,0,327.4,7h4.808v4.808a.732.732,0,0,0,1.464,0V7h4.808a.732.732,0,0,0,0-1.464" transform="translate(-287.891)" fill="blue" stroke="blue" stroke-width="0.8"/>
        <path id="Caminho_2624" data-name="Caminho 2624" d="M56.443,77.659V74.888a4.887,4.887,0,0,0-9.773,0v2.771a4.887,4.887,0,0,0,9.773,0m-1.464,0a3.423,3.423,0,0,1-6.846,0V74.888a3.423,3.423,0,0,1,6.846,0Z" transform="translate(-41.13 -61.692)" fill="blue" stroke="blue" stroke-width="0.8"/>
        <path id="Caminho_2625" data-name="Caminho 2625" d="M168.217,152.536a4.893,4.893,0,0,0,4.887-4.887v-2.77a4.887,4.887,0,0,0-9.775,0v2.77a4.867,4.867,0,0,0,.1.979l.347,1.688,1.328,1.1a4.894,4.894,0,0,0,3.114,1.121m-3.422-7.657a3.422,3.422,0,0,1,6.845,0v2.771a3.422,3.422,0,1,1-6.845,0Z" transform="translate(-143.941 -123.374)" fill="blue" stroke="blue" stroke-width="0.8"/>
        <path id="Caminho_2626" data-name="Caminho 2626" d="M.17,196.435H1.637a8.964,8.964,0,0,1,17.8-.677l.065.435-.379.224a10.485,10.485,0,0,0-5.106,8.328h1.467a8.964,8.964,0,0,1,17.8-.677l.065.435-.378.224a10.486,10.486,0,0,0-5.108,8.328h1.468a8.963,8.963,0,0,1,17.878,0h1.467a10.437,10.437,0,0,0-13.25-9.381l-.669.189-.147-.679a10.456,10.456,0,0,0-.479-1.589l-.637-1.631-1.148-1.341a10.444,10.444,0,0,0-10.768-3.259l-.668.189-.148-.678a10.62,10.62,0,0,0-.481-1.59l-.637-1.63L18.5,190.313A10.427,10.427,0,0,0,.17,196.435" transform="translate(-0.15 -164.503)" fill="blue" stroke="blue" stroke-width="0.8"/>
        <path id="Caminho_2627" data-name="Caminho 2627" d="M284.887,222.536a4.892,4.892,0,0,0,4.886-4.887v-2.77a4.887,4.887,0,1,0-9.773,0v2.77a4.87,4.87,0,0,0,.1.979l.347,1.688,1.328,1.1a4.893,4.893,0,0,0,3.114,1.121m-3.422-7.657a3.422,3.422,0,0,1,6.845,0v2.771a3.422,3.422,0,0,1-6.845,0Z" transform="translate(-246.761 -185.064)" fill="blue" stroke="blue" stroke-width="0.8"/>
        <path id="Caminho_2628" data-name="Caminho 2628" d="M29.164,285.621H27.7V289.7H15.314V277.312H13.85V289.7H1.464V269H0v20.042a2.119,2.119,0,0,0,2.117,2.117H46.436a2.119,2.119,0,0,0,2.117-2.117V285.5H47.089V289.7H29.164Z" transform="translate(0 -237.069)" fill="blue" stroke="blue" stroke-width="0.8"/>
      </g>
    </g>
  </g>
</svg>
