<svg xmlns="http://www.w3.org/2000/svg" width="164.66" height="67.297" viewBox="0 0 164.66 67.297">
  <g id="noun-ship-4062631" transform="translate(-129.034 -189.67)">
    <path id="Caminho_3122" data-name="Caminho 3122" d="M293.578,226.919a1.731,1.731,0,0,0-1.607-1.064H265.7v-6.406a1.728,1.728,0,0,0-1.732-1.732H186.858a1.728,1.728,0,0,0-1.732,1.732v15.3h-15.38V208.66a1.728,1.728,0,0,0-1.732-1.732H164.4V191.4a1.728,1.728,0,0,0-1.732-1.732h-9.495a1.728,1.728,0,0,0-1.732,1.732v15.526h-4.2a1.728,1.728,0,0,0-1.732,1.732v26.106h-8.409a1.72,1.72,0,0,0-1.585,2.4l5.948,13.689a26.489,26.489,0,0,0-10.7-1.962,1.732,1.732,0,1,0,0,3.464,23.906,23.906,0,0,1,10.559,2.17,27.172,27.172,0,0,0,11.874,2.441,26.809,26.809,0,0,0,11.874-2.441,26.772,26.772,0,0,1,21.119,0,27.172,27.172,0,0,0,11.874,2.441,26.809,26.809,0,0,0,11.874-2.441,26.772,26.772,0,0,1,21.119,0,27.172,27.172,0,0,0,11.874,2.441,26.809,26.809,0,0,0,11.874-2.441,26.772,26.772,0,0,1,21.119,0,27.172,27.172,0,0,0,11.874,2.441,1.732,1.732,0,0,0,0-3.464,23.906,23.906,0,0,1-10.559-2.17,32.574,32.574,0,0,0-4.9-1.69l20.722-20.848a1.585,1.585,0,0,0,.523-1.875Zm-31.344-1.064h-5.78a1.708,1.708,0,0,0-.834.208l-5.363,2.9v-7.783h11.958l0,4.674Zm-58.222,8.889V221.159H215.97v13.586Zm15.423-13.565h11.958v13.586H219.434Zm15.421,0h11.958v9.663l-7.2,3.9h-4.759Zm-46.264,0h11.958v13.586H188.591Zm-33.66-28.046h6.031v13.794h-6.031Zm-5.948,17.258h17.3v2.879h-9.871a1.732,1.732,0,1,0,0,3.464h9.871v18.03h-17.3Zm119.3,38.565c-.02.02-.042.042-.042.063-.834-.063-1.753-.1-2.734-.1a26.809,26.809,0,0,0-11.874,2.441,26.771,26.771,0,0,1-21.119,0,27.172,27.172,0,0,0-11.874-2.441,26.809,26.809,0,0,0-11.874,2.441,26.771,26.771,0,0,1-21.119,0,27.173,27.173,0,0,0-11.874-2.441,26.809,26.809,0,0,0-11.874,2.441,27.24,27.24,0,0,1-17.821,1.211,1.757,1.757,0,0,0-.1-.313l-6.093-14.044H240.156a1.709,1.709,0,0,0,.834-.208l16.027-8.681h30.927Z" fill="#268200"/>
    <path id="Caminho_3123" data-name="Caminho 3123" d="M462.62,312.364a1.728,1.728,0,0,0,1.732,1.732H477.54a1.732,1.732,0,0,0,0-3.464H464.352A1.741,1.741,0,0,0,462.62,312.364Z" transform="translate(-209.277 -75.886)" fill="#268200"/>
  </g>
</svg>
