<svg xmlns="http://www.w3.org/2000/svg" width="82" height="82" viewBox="0 0 82 82">
  <g id="Grupo_421" data-name="Grupo 421" transform="translate(-679.991 1)">
    <rect id="Retângulo_47" data-name="Retângulo 47" width="80" height="80" transform="translate(680.991)" fill="none" stroke="#fff" stroke-linejoin="round" stroke-width="2"/>
    <path id="Caminho_36" data-name="Caminho 36" d="M46.84,821.118c-.051-.027-.08-.045-.121-.038-.083.017-.1.059-.1.209a.35.35,0,0,1-.082.272.383.383,0,0,1-.27.046.652.652,0,0,0-.1,0l-.027.015-.011.009a.624.624,0,0,1,.289.186.174.174,0,0,1-.053.287l-.027.018.008.011h0l.038.014c.06.021.141.051.161.13a.173.173,0,0,1-.045.156.252.252,0,0,1-.2.064.245.245,0,0,0-.059,0l-.021,0a.208.208,0,0,0-.137.054s-.007.009,0,.028a.651.651,0,0,0,.081.024.239.239,0,0,1,.139.068.144.144,0,0,1,.062.08c0,.009.009.023.016.035.07.157.07.157.243.206a.7.7,0,0,1,.09.04.194.194,0,0,0,.108.034s-.007,0,0-.014a.247.247,0,0,1,.069-.072.428.428,0,0,0,.056-.033c.047-.032.068-.031.144-.025l.026,0a.506.506,0,0,1,.136.042.5.5,0,0,0,.162.036h.031a.213.213,0,0,1,.1-.17.246.246,0,0,1,.24-.016c.064.021.09.026.119,0a.36.36,0,0,0,.03-.1.285.285,0,0,1,.108-.194.14.14,0,0,1,.119-.007c.059.007.089.07.107.109a.245.245,0,0,0,.017.033.269.269,0,0,0,.016-.082.335.335,0,0,1,.005-.049l-.008-.015a.2.2,0,0,1-.023-.129.48.48,0,0,1,.218-.224l.036-.023a1.22,1.22,0,0,0,.423-.511l.066-.114c.019-.032.037-.058.052-.083a.43.43,0,0,0,.057-.1s-.006-.019-.06-.066a.59.59,0,0,0-.145-.091,1.209,1.209,0,0,1-.118-.065c-.026-.012-.057-.031-.089-.05a.518.518,0,0,0-.2-.09.392.392,0,0,0-.128.017.484.484,0,0,1-.205.014.545.545,0,0,1-.122-.049.248.248,0,0,0-.093-.037.375.375,0,0,0-.083.026.518.518,0,0,1-.093.029.759.759,0,0,1-.19.006.648.648,0,0,0-.154,0,.455.455,0,0,0-.15.084.483.483,0,0,1-.246.112A.386.386,0,0,1,46.84,821.118ZM67.5,830.669a.415.415,0,0,1,.063-.143.125.125,0,0,0,.02-.13c-.019-.095-.042-.1-.154-.136l-.032-.01a.08.08,0,0,1-.055-.068.082.082,0,0,1,.033-.081.058.058,0,0,0,.027-.046h0a.223.223,0,0,1-.022-.051.1.1,0,0,1-.024.006.23.23,0,0,0,0-.187h0a.051.051,0,0,1,.02-.007.084.084,0,0,0-.023-.045.192.192,0,0,0-.084-.051.255.255,0,0,1-.16-.134.1.1,0,0,1-.007-.034V829.3a.558.558,0,0,1,.006-.132.335.335,0,0,0,0-.127.388.388,0,0,0-.066-.084.421.421,0,0,1-.127-.214.783.783,0,0,1-.019-.274c.007-.114.008-.181-.045-.24a.572.572,0,0,0-.081-.047.476.476,0,0,1-.188-.146c-.029-.033-.068-.079-.092-.086a.467.467,0,0,0-.208,0l-.043.006a2.13,2.13,0,0,1-.376-.006,2.41,2.41,0,0,0-.338,0,1.059,1.059,0,0,1-.382-.024l-.089,0a.685.685,0,0,1-.238-.032.554.554,0,0,1-.174-.135c-.026-.026-.048-.047-.068-.064a.663.663,0,0,0-.5-.3.8.8,0,0,0-.255-.134.623.623,0,0,1-.391-.284l-.027-.054a.865.865,0,0,0-.226-.333l-.049-.039a3.034,3.034,0,0,1-.386-.325,2.887,2.887,0,0,0-1-.687,3.133,3.133,0,0,1-.39-.247,2.2,2.2,0,0,0-.494-.293c-.061-.02-.123-.043-.187-.066-.1-.037-.2-.073-.3-.106a.267.267,0,0,0-.219,0,.7.7,0,0,1-.122.032.5.5,0,0,1-.158,0,.267.267,0,0,0-.134,0c-.022.016-.02.055,0,.14a.517.517,0,0,1,.011.135.086.086,0,0,1-.043.064.08.08,0,0,1-.075,0,.309.309,0,0,1-.134-.155.268.268,0,0,1-.144-.043.346.346,0,0,0-.048-.027c-.154-.055-.155-.057-.29.053a1.283,1.283,0,0,0-.137-.013,1.889,1.889,0,0,1-.2-.02,1.65,1.65,0,0,0-.415-.107.192.192,0,0,1-.007.028l-.156-.036v0a.08.08,0,0,1-.055-.074.082.082,0,0,1,.052-.082.137.137,0,0,0-.027-.042c-.072-.076-.269-.065-.441-.055a1.4,1.4,0,0,1-.325,0,1.359,1.359,0,0,1-.72-.257.359.359,0,0,0-.42-.1c-.08.015-.155.035-.231.056s-.179.046-.276.064c-.019,0-.041.006-.065.009a.387.387,0,0,0-.133.027.276.276,0,0,0-.052.089.317.317,0,0,1-.112.148.252.252,0,0,1-.262-.012c-.06-.03-.092-.042-.138-.018a.484.484,0,0,0-.113.133.7.7,0,0,1-.126.15,1.852,1.852,0,0,1-.191.13l-.107.068a.082.082,0,0,1-.094,0,.091.091,0,0,1-.028-.093.479.479,0,0,0-.008-.231.6.6,0,0,1-.015-.25.394.394,0,0,1,.231-.273.37.37,0,0,0,.154-.129c.06-.118-.01-.222-.124-.367-.015-.021-.033-.042-.047-.061a.429.429,0,0,1-.084-.2.443.443,0,0,0-.031-.1.143.143,0,0,0-.071-.082.467.467,0,0,1-.1-.079.93.93,0,0,1-.113-.133.3.3,0,0,0-.214-.146.771.771,0,0,0-.1-.018.565.565,0,0,1-.179-.044.308.308,0,0,1-.142-.148.157.157,0,0,0-.029-.045,1.213,1.213,0,0,0-.5-.164c-.06-.011-.108-.023-.159-.035a1.433,1.433,0,0,0-.3-.053.733.733,0,0,0-.233-.117c-.016-.03-.044-.046-.094-.075l-.049-.029a.791.791,0,0,1-.14-.1.557.557,0,0,0-.151-.1.357.357,0,0,0-.079,0,.38.38,0,0,1-.167-.02.331.331,0,0,1-.145-.1.18.18,0,0,0-.058-.053.481.481,0,0,0-.279-.048,1.2,1.2,0,0,1-.187-.009,1.486,1.486,0,0,0-.174-.015,1.647,1.647,0,0,1-.252-.029c-.04-.011-.074-.024-.108-.033A.311.311,0,0,0,50,821.7a.8.8,0,0,0-.273.223.746.746,0,0,1-.264.256l-.048.034a.711.711,0,0,0-.167.182,1.232,1.232,0,0,1-.092.118.986.986,0,0,1-.3.2c-.052.026-.1.052-.15.081l-.062.046a2.019,2.019,0,0,0-.358.306.616.616,0,0,0-.065.1c-.059.108-.147.271-.338.227a.082.082,0,0,1-.062-.1l.011-.046c.005-.022.013-.05.017-.078a.405.405,0,0,1-.072.058.3.3,0,0,1-.172.062.168.168,0,0,0-.06.012c-.069.029-.083.067-.106.13a.428.428,0,0,1-.129.2.084.084,0,0,1-.051.018.081.081,0,0,1-.06-.028,1.454,1.454,0,0,1-.163-.248c-.008-.016-.018-.032-.026-.048a.224.224,0,0,1-.108.036.408.408,0,0,0-.059.012.553.553,0,0,0-.159.084.55.55,0,0,1-.185.093c-.175.034-.459-.2-.54-.3a.74.74,0,0,1-.1-.269.67.67,0,0,0-.073-.214c-.006-.007-.017-.021-.029-.034a.413.413,0,0,1-.094-.146.257.257,0,0,1,.008-.155.154.154,0,0,0,.01-.054c-.014-.075-.031-.1-.133-.115a.582.582,0,0,0-.285.029.356.356,0,0,0-.091.091c-.052.074-.1.1-.245.109l-.028,0c-.109.006-.109.006-.175.137a.628.628,0,0,1-.4.366c-.157.042-.443,0-.5-.144-.021-.051-.032-.149.133-.246a.344.344,0,0,1,.15-.042.2.2,0,0,0,.138-.054.333.333,0,0,0,.084-.16l-.04-.005a.61.61,0,0,0,.039-.082c.008-.025.017-.052.024-.078h0c.091-.037.191-.408.239-.588.057-.206.079-.288.144-.3a1.681,1.681,0,0,1,.373-.365.745.745,0,0,1,.222-.124.575.575,0,0,0,.157-.085.4.4,0,0,0,.083-.2.953.953,0,0,1,.057-.186,1.382,1.382,0,0,1,.312-.411.071.071,0,0,1,.023-.011c.065-.279.514-.6.519-.606a1.316,1.316,0,0,1,.231-.128.658.658,0,0,0,.329-.241.839.839,0,0,0-.071-.648.245.245,0,0,0-.192-.142.286.286,0,0,0-.094.018.218.218,0,0,1-.236-.035.318.318,0,0,1-.089-.152.411.411,0,0,0-.032-.069.2.2,0,0,0-.082-.079.621.621,0,0,1-.086-.061c-.022-.025-.039-.048-.058-.073a.444.444,0,0,0-.04-.052.228.228,0,0,0-.065-.043.2.2,0,0,1-.113-.144.6.6,0,0,1,0-.2.388.388,0,0,0,.006-.153.181.181,0,0,0-.1-.114.344.344,0,0,1-.129-.134.484.484,0,0,1-.059-.279c0-.121,0-.193-.133-.256a.081.081,0,0,1-.025-.02.086.086,0,0,1-.062-.077,2.513,2.513,0,0,1,.026-.509c.01-.1.023-.2.026-.3v-.04a.164.164,0,0,1-.116-.064.468.468,0,0,1-.064-.329c0-.04.005-.077,0-.111a.189.189,0,0,1-.165-.134.244.244,0,0,0-.037-.067.236.236,0,0,0-.093-.057.493.493,0,0,1-.083-.041c-.049.079-.1.155-.156.231s-.11.156-.157.236a.947.947,0,0,0-.1.173,1.33,1.33,0,0,1-.087.154.872.872,0,0,1-.168.169.769.769,0,0,0-.138.135,5.376,5.376,0,0,0-.432.785c-.038.077-.075.155-.115.234-.026.05-.056.1-.086.149a2.237,2.237,0,0,0-.122.226.694.694,0,0,0-.038.14.292.292,0,0,1-.153.245,1.806,1.806,0,0,1-.6.177.209.209,0,0,1-.1-.019.185.185,0,0,1-.086-.151l0-.022a.5.5,0,0,0-.085.008.675.675,0,0,1-.166.012.6.6,0,0,1-.2-.065c-.069-.031-.114-.05-.154-.036a.363.363,0,0,0-.117.084.617.617,0,0,1-.2.132.812.812,0,0,1-.387.024.565.565,0,0,1-.191-.1.469.469,0,0,0-.088-.057.374.374,0,0,0-.1-.031l-.009,0a1.164,1.164,0,0,0-.236-.216.089.089,0,0,1,.031-.039.2.2,0,0,0-.063-.079.953.953,0,0,0-.689-.009.978.978,0,0,0-.2.095.683.683,0,0,1-.423.135.422.422,0,0,1-.189-.121l0-.005a.486.486,0,0,1-.056.091l-.018.024a.5.5,0,0,1-.088.095l-.01.007c.006.011.016.029.037.061a.688.688,0,0,0,.061.09.549.549,0,0,1,.071.1.325.325,0,0,1-.02.34c-.116.129-.366.092-.555.04a2.187,2.187,0,0,0-.646-.041,2.252,2.252,0,0,1-.274-.01,1.387,1.387,0,0,0-.334,0,.377.377,0,0,0-.248.126.287.287,0,0,0-.035.058.249.249,0,0,1-.177.147.531.531,0,0,1-.241.005.382.382,0,0,0-.216.011.1.1,0,0,0-.027.041.3.3,0,0,1-.144.146.645.645,0,0,1-.249.037c-.124,0-.2,0-.253.088a.1.1,0,0,0-.018.055.225.225,0,0,1-.08.153.567.567,0,0,1-.22.091l-.065.019a1.661,1.661,0,0,0-.286-.184.156.156,0,0,0-.087-.072.487.487,0,0,0-.145-.011.476.476,0,0,0-.072-.009.24.24,0,0,1-.044-.012.4.4,0,0,1-.151-.127.432.432,0,0,0-.067-.068.682.682,0,0,0-.088-.05.424.424,0,0,1-.2-.193,1.068,1.068,0,0,0-.219-.288.685.685,0,0,1-.163-.4c-.008-.043-.016-.087-.026-.126s-.013-.057-.019-.089a1.574,1.574,0,0,0-.05-.193l-.031-.029a.3.3,0,0,1-.069-.08,1.859,1.859,0,0,1-.085-.851.092.092,0,0,1,.085-.084.078.078,0,0,1,.077.084v.017c.006-.048.007-.094.01-.136a.537.537,0,0,1,.054-.265,2.1,2.1,0,0,0,.1-.227.867.867,0,0,1,.181-.33.9.9,0,0,1,.079-.067.424.424,0,0,0,.2-.286.2.2,0,0,0-.083-.189.187.187,0,0,1-.039-.036,1.03,1.03,0,0,1-.2-.41.431.431,0,0,0-.4-.324l-.05-.011-.057-.015c-.016,0-.034-.007-.034,0a.225.225,0,0,1,0-.064c.005-.029.008-.04.012-.034a.207.207,0,0,0,.108-.078.5.5,0,0,0,.066-.381c-.029-.1-.065-.13-.12-.152l-.015-.02a.141.141,0,0,1-.013-.066.244.244,0,0,0-.33-.227.146.146,0,0,0-.064.074c-.023,0-.048.006-.075.01-.1.013-.313.041-.374-.021a.082.082,0,0,0-.071-.08c-.091-.011-.149.012-.176.067-.048.1.06.215.172.336a.294.294,0,0,0,.052.051c.013.05,0,.074-.109.144a.4.4,0,0,0-.18.2.386.386,0,0,1,.045-.03.08.08,0,0,1,.11.036.084.084,0,0,1-.034.112.167.167,0,0,0-.082.1.257.257,0,0,1-.16.164.684.684,0,0,1-.2.026.64.64,0,0,0-.117.009.334.334,0,0,0-.074.021.339.339,0,0,1-.062.023.544.544,0,0,1-.107.021.1.1,0,0,0-.085.034.071.071,0,0,0-.023.04.256.256,0,0,1-.108.144.42.42,0,0,1-.18.06c-.047.006-.052.007-.074.05a.077.077,0,0,0,.005.025.148.148,0,0,1-.075.17.674.674,0,0,1-.377.022c-.042,0-.081-.01-.106-.01a1.641,1.641,0,0,0-.674.091c-.04.031-.038.057-.02.149a.471.471,0,0,1,.008.2.279.279,0,0,1-.158.194.468.468,0,0,1-.409-.007.323.323,0,0,1-.135-.165.219.219,0,0,0-.068-.1.611.611,0,0,0-.313-.034c-.035,0-.068,0-.1,0a.87.87,0,0,1-.336-.107.689.689,0,0,0-.3-.089.277.277,0,0,1-.3-.205.178.178,0,0,0-.091-.119,1.1,1.1,0,0,0-.509-.009.06.06,0,0,0-.013.057.337.337,0,0,0,.2.165c.063.017.107.025.139.031.15.026.164.074.193.246l.012.072a.5.5,0,0,0,.075.177.39.39,0,0,1,.046.388.447.447,0,0,1-.147.2.244.244,0,0,0-.083.106.153.153,0,0,0-.01.106l.024.01a.08.08,0,0,1,.074.076c0,.055.012.112.019.168a2.25,2.25,0,0,1,.025.273,1.174,1.174,0,0,1,0,.14c0,.08-.011.179.022.212.025.017.132,0,.215.023A.667.667,0,0,1,28,817.1a.243.243,0,0,1,.14,0,.2.2,0,0,0,.075.01.312.312,0,0,0,.064-.039.267.267,0,0,1,.256-.054.215.215,0,0,1,.125.149.724.724,0,0,1,.012.319,2.29,2.29,0,0,0-.215.13.517.517,0,0,0-.061.049.082.082,0,0,1-.059-.036.251.251,0,0,0-.058,0v.014a.212.212,0,0,1-.064.109.431.431,0,0,1-.17.055l-.033.005a.6.6,0,0,1-.154.009.486.486,0,0,0-.155.014c-.026.02-.026.046-.007.135a.617.617,0,0,1,.016.117.347.347,0,0,1-.275.37.513.513,0,0,0-.162.085l-.07.054a.426.426,0,0,1-.261.1.225.225,0,0,0-.16.092.529.529,0,0,1-.152.128.422.422,0,0,1-.19.039.223.223,0,0,0-.129.026.175.175,0,0,0-.018.071.271.271,0,0,1-.136.223.259.259,0,0,1-.165.019c-.05-.006-.055-.007-.076.028a.188.188,0,0,0-.019.092.219.219,0,0,1-.354.161.285.285,0,0,1-.039-.236c0-.037.014-.112,0-.122a1.346,1.346,0,0,0-.315.049.268.268,0,0,0-.107.1.369.369,0,0,1-.179.145.778.778,0,0,1-.591-.057.432.432,0,0,1-.129-.191.41.41,0,0,0-.092-.146.806.806,0,0,0-.236-.1c-.2-.067-.436-.143-.462-.354a.263.263,0,0,1,.126-.231.228.228,0,0,0,.052-.049,1.754,1.754,0,0,0-.139-.193l-.022-.028c-.031-.035-.066-.071-.1-.1a1.359,1.359,0,0,1-.143-.155,1.34,1.34,0,0,1-.087-.125c-.024-.037-.046-.071-.07-.1a1.069,1.069,0,0,0-.182.2,1.2,1.2,0,0,1-.2.21.442.442,0,0,1-.424.058.179.179,0,0,1-.076-.173.077.077,0,0,0,0-.041l0,0-.006.051a.362.362,0,0,1-.081.24c-.076.07-.234.06-.448.037-.051,0-.094-.01-.123-.01-.094,0-.189.006-.283.011s-.2.011-.293.011c-.018,0-.047.005-.077.01a.831.831,0,0,1-.407-.017.2.2,0,0,1-.071-.056l-.02-.019c-.1-.034-.112-.036-.229.02-.249.114-.3.164-.278.4a2.022,2.022,0,0,1,.012.229.438.438,0,0,0,.048.264.221.221,0,0,0,.172.04,1.057,1.057,0,0,0,.123-.013c.168-.025.378-.053.5.186a.594.594,0,0,1,.03.559.225.225,0,0,1-.27.072.435.435,0,0,1-.112-.057.307.307,0,0,0-.1-.049.4.4,0,0,0-.2.024l-.072.019c-.036.01-.076.017-.116.026-.187.04-.3.068-.325.2a3.414,3.414,0,0,0-.011.7l0,.051c.009.123.018.169.094.212l.013.009c.263.115.576.429.519.714a.216.216,0,0,1-.056.1c-.024.028-.029.036-.028.049s.027.067.156.2a.571.571,0,0,1,.2.525,7.87,7.87,0,0,1-.306,1.789,5.2,5.2,0,0,0-.1.544c-.021.15-.044.308-.078.462a6.647,6.647,0,0,0-.125.888.086.086,0,0,1-.028.057.6.6,0,0,1-.168.429.422.422,0,0,1-.361.066.084.084,0,0,1-.067-.079c0-.009,0-.034-.046-.069a.763.763,0,0,0-.5-.092c-.054.014-.075.052-.11.12a.441.441,0,0,1-.108.155.513.513,0,0,1-.4.079c-.035,0-.07-.006-.1-.006a3.082,3.082,0,0,0-1.308.432,1.319,1.319,0,0,0-.183.154,1.4,1.4,0,0,1-.18.158.442.442,0,0,1-.248.094l-.053.007a.15.15,0,0,1,0,.056.3.3,0,0,1-.145.19.337.337,0,0,0-.086.08,1.227,1.227,0,0,0-.085.392l-.01.1a.535.535,0,0,1-.149.292.4.4,0,0,0-.1.142.515.515,0,0,0-.006.293.068.068,0,0,1,.047.034.076.076,0,0,1,0,.063.338.338,0,0,0,.014.147.464.464,0,0,1,.006.249.281.281,0,0,1-.211.193.434.434,0,0,0-.086.037,1.55,1.55,0,0,0-.528.549.522.522,0,0,1,.118.124.314.314,0,0,0-.017.21,1.2,1.2,0,0,0,.039.145.083.083,0,0,1-.055.045l-.1.018c-.046.007-.116.019-.126.035s-.012.024.016.109a.738.738,0,0,0,.134.2,1,1,0,0,1,.178.28.082.082,0,0,1-.009.078.08.08,0,0,1-.051.035l-.007.018c-.007.018-.02.051-.028.074H14.7a.255.255,0,0,1,.131.026.266.266,0,0,1,.12.15l.015.035a.83.83,0,0,1,.067.2.432.432,0,0,0,.07.182,4.243,4.243,0,0,0,.325.42c.069.081.137.162.2.242.173.215.024.365-.065.456-.039.04-.083.084-.081.11a.083.083,0,0,0,.022.043.85.85,0,0,1,.838.184,1.2,1.2,0,0,1,.268.312.829.829,0,0,1,.067.2c.021.092.033.137.087.166a.318.318,0,0,0,.133.011.555.555,0,0,1,.182.017.381.381,0,0,1,.129.05.448.448,0,0,0,.059.027,1.707,1.707,0,0,0,.622-.1l.022-.008a.714.714,0,0,0,.324-.244c.044-.048.089-.1.137-.139l.073-.066a2.544,2.544,0,0,1,.456-.357.081.081,0,0,1,.089.009.09.09,0,0,1,.026.09,6.189,6.189,0,0,0-.206,1.251l0,.05a2.324,2.324,0,0,0,.03.836.077.077,0,0,1,.007.03l.041.04a.213.213,0,0,0,.084.063.439.439,0,0,0,.155-.068.566.566,0,0,1,.154-.073,1.066,1.066,0,0,1,.186-.029.946.946,0,0,0,.167-.024.905.905,0,0,1,.342-.015c.04,0,.082.009.133.011a2.93,2.93,0,0,1,.561.048c.058.019.113.042.17.065a1.417,1.417,0,0,0,.44.127,1.14,1.14,0,0,0,.48-.265.553.553,0,0,0,.126-.177c.075-.134.178-.318.4-.273a.552.552,0,0,1,.164.069c.1.056.125.07.194-.034a.306.306,0,0,0,.05-.112.339.339,0,0,1,.125-.2.976.976,0,0,1,.277-.119,1,1,0,0,0,.233-.092,1.017,1.017,0,0,0,.176-.143,1.059,1.059,0,0,1,.227-.173.72.72,0,0,1,.142-.052.873.873,0,0,0,.1-.034h0a.715.715,0,0,0,.19-.118l.013.008a.594.594,0,0,1,.074-.007.261.261,0,0,1,.1.009.249.249,0,0,1,.045.005l.022-.04a.213.213,0,0,1,.057-.068.725.725,0,0,1,.334-.066.881.881,0,0,0,.2-.022c.028-.006.053-.013.078-.02a.662.662,0,0,1,.244-.037.309.309,0,0,1,.107.044.141.141,0,0,0,.052.022s.009-.009.023-.017a.2.2,0,0,1,.1-.038c-.008,0,0,0,.013-.007.067-.022.191-.063.272.147a.469.469,0,0,1,.022.2.462.462,0,0,0,.011.158.085.085,0,0,1-.037.1.676.676,0,0,1,0,.155.415.415,0,0,1-.05.142.157.157,0,0,0-.023.054,1.3,1.3,0,0,0,.058.543l.025.075a.8.8,0,0,1,.064.341.531.531,0,0,1-.031.122.207.207,0,0,0-.022.089,1.134,1.134,0,0,0,.068.359,1.071,1.071,0,0,0,.431.5.6.6,0,0,1,.16.2c.012.02.024.042.04.066a.279.279,0,0,0,.138.1.5.5,0,0,1,.165.11.574.574,0,0,1,.155.248c.036.094.052.136.209.162a1.165,1.165,0,0,0,.321-.026.9.9,0,0,1,.539.021.589.589,0,0,1,.185.162.382.382,0,0,0,.134.118.518.518,0,0,0,.17.006,1.125,1.125,0,0,1,.153,0,.439.439,0,0,1,.349.224.631.631,0,0,0,.122.139.745.745,0,0,0,.335.133,1.21,1.21,0,0,1,.28.086.844.844,0,0,0,.085.029.609.609,0,0,1,.161.062.435.435,0,0,1,.171.164.518.518,0,0,0,.078.089,1.142,1.142,0,0,0,.207.151.142.142,0,0,0,.108,0,.462.462,0,0,1,.16-.027.52.52,0,0,1,.179.04.491.491,0,0,0,.093.027.614.614,0,0,0,.137-.03.622.622,0,0,1,.178-.036,2.113,2.113,0,0,1,.66.169.716.716,0,0,0,.1.035l.029.01.009,0a.423.423,0,0,0,.15.051l.081.012-.058.038h.012a.337.337,0,0,1,.19.061.693.693,0,0,1,.209.444.328.328,0,0,1-.076.153.26.26,0,0,0-.051.086,1.141,1.141,0,0,0,.021.284.181.181,0,0,0,.069.1.859.859,0,0,1,.075.085.543.543,0,0,1,.077.221l.011.051a.614.614,0,0,0,.038.12c.055.16.125.361.009.467a.286.286,0,0,1-.25.062l0,.005a.753.753,0,0,0,.089.131,1.116,1.116,0,0,1,.115.18c.013.034.025.061.036.085a.873.873,0,0,1,.087.3,2.291,2.291,0,0,1,.016.259.665.665,0,0,0,.15.513c.181.187.372.134.613.069a2.105,2.105,0,0,1,.249-.059.945.945,0,0,1,.406.042,1.407,1.407,0,0,0,.211.044,1.77,1.77,0,0,0,.474-.018l.127-.015c.148-.012.3-.007.368.1a.243.243,0,0,1-.028.252.266.266,0,0,1-.134.1.211.211,0,0,0-.045.021.384.384,0,0,0-.011.215l0,.023c0,.035.007.075.011.121a.966.966,0,0,0,.112.47.231.231,0,0,0,.07.043.434.434,0,0,1,.119.076.5.5,0,0,1,.09.129c.022.042.041.081.067.093a.19.19,0,0,0,.051.017c.033.092.113.151.256.221l.071.038a.111.111,0,0,1-.022.021.463.463,0,0,1,.027.124l0,.034a.493.493,0,0,0,.093.247.94.94,0,0,1,.1.259c.027.094.068.233.112.251a.086.086,0,0,1,.049.058.083.083,0,0,1-.017.074.447.447,0,0,1-.106.091.186.186,0,0,0-.073.068.833.833,0,0,0-.034.135.814.814,0,0,1-.047.175.486.486,0,0,0-.036.385l0,.025a.433.433,0,0,1-.083.42.4.4,0,0,1-.143.078.233.233,0,0,0-.09.042.478.478,0,0,0-.066.208.806.806,0,0,1-.036.148c-.007.026-.019.058-.031.091-.047.126-.074.214-.022.286a.233.233,0,0,0,.046.021.21.21,0,0,1,.16.184.313.313,0,0,1-.149.268.6.6,0,0,0-.053.049c-.068.088-.045.143.017.272a.9.9,0,0,1,.089.25c0,.029.009.062.014.1a.553.553,0,0,0,.071.265.2.2,0,0,0,.056.034.267.267,0,0,1,.135.125.788.788,0,0,1,.029.3c0,.126,0,.171-.077.228a.456.456,0,0,0-.069.068c-.074.092-.06.2-.029.359a1.831,1.831,0,0,1,.029.22,1.037,1.037,0,0,1-.009.116c-.008.074-.02.186.009.221a1.823,1.823,0,0,0,.191.058c.037.013.07.02.088.027.039.02.068.032.1.044a.713.713,0,0,1,.165.087.363.363,0,0,1,.066.08.176.176,0,0,0,.038.05.5.5,0,0,0,.305-.037.822.822,0,0,1,.328-.054l.038,0c.4.048.461,0,.472-.01a.072.072,0,0,0-.006-.019.081.081,0,0,1,0-.065.09.09,0,0,1,.043-.047c.134-.059.25.035.342.113a.458.458,0,0,0,.119.08,1.252,1.252,0,0,0,.15.01.493.493,0,0,1,.414.134.562.562,0,0,1,.079.156.571.571,0,0,0,.051.111l.04.057a.828.828,0,0,1,.2.527l0,.078a.9.9,0,0,0,.051.45c.017.041.035.08.053.115a.84.84,0,0,1,.11.394c0,.036-.005.076-.008.12-.011.112-.022.228.041.282a.457.457,0,0,0,.226.017l.069,0,.011-.006a.616.616,0,0,0,.157-.092.446.446,0,0,1,.487-.106.789.789,0,0,1,.537.32l.026-.04a1.226,1.226,0,0,0,.063.2l-.025.035a1.978,1.978,0,0,1-.069,1.188.381.381,0,0,0,0,.063.558.558,0,0,1-.019.147.5.5,0,0,1-.117.2.743.743,0,0,0-.052.065c-.08.1-.1.155-.068.213s.175.045.283.043c.052,0,.1,0,.144,0,.213.012.284.048.382.277a.785.785,0,0,1,.025.091.392.392,0,0,0,.029.1.228.228,0,0,0,.074.082.39.39,0,0,1,.113.125.546.546,0,0,1,.023.173v.035a.494.494,0,0,0,.037.409,1.148,1.148,0,0,0,.016.354c.006.046.012.091.017.134a.72.72,0,0,1-.041.3l0,.009a.8.8,0,0,0-.313.114.634.634,0,0,0-.159.142.723.723,0,0,0-.185.083l-.2.133c-.214.142-.417.277-.642.4a6.557,6.557,0,0,0-.669.433l-.13.092c-.041.028-.093.055-.147.084a.825.825,0,0,0-.252.166.309.309,0,0,0-.036.158.833.833,0,0,1-.013.116.091.091,0,0,1-.044.059.09.09,0,0,1-.07,0c-.094-.05-.2.086-.318.236-.029.039-.056.074-.08.1a1.88,1.88,0,0,0-.188.237c-.037.051-.072.1-.113.149a1.163,1.163,0,0,1-.242.2,1.5,1.5,0,0,0-.174.133,1.186,1.186,0,0,0-.175.236c-.034.056-.068.112-.108.166a1.6,1.6,0,0,1-.312.3,2.113,2.113,0,0,0-.188.159,3.046,3.046,0,0,0-.271.3c-.063.076-.127.153-.2.226a.278.278,0,0,1,.027.049.674.674,0,0,0,.279.045h.024a.7.7,0,0,0,.146-.008.212.212,0,0,0-.025-.043.087.087,0,0,1-.012-.073.082.082,0,0,1,.046-.054c.115-.05.484-.152.652-.036a.549.549,0,0,1,.127.179.62.62,0,0,0,.09.142.993.993,0,0,0,.241.156.779.779,0,0,1,.352.286,1.133,1.133,0,0,1,.127.322,1.837,1.837,0,0,0,.055.177.248.248,0,0,1,.027.093l.01,0c.021.015.072.007.22-.059a.24.24,0,0,0,.091-.1.2.2,0,0,1,.234-.122c.134.038.256.251.319.378a.083.083,0,0,1,.062.049l.011.026c.054.128.054.128.218.152a.894.894,0,0,0,.121.023.712.712,0,0,1,.208.052.251.251,0,0,1,.09.094l.017.026a.562.562,0,0,0,.147.058.425.425,0,0,1,.281.2.5.5,0,0,1,.053.125c.016.05.025.082.053.1a.219.219,0,0,0,.069.024.381.381,0,0,1,.15.063.275.275,0,0,1,.076.12c0,.01.007.015.024.022a.143.143,0,0,0,.073,0,.3.3,0,0,1,.192.014.713.713,0,0,1,.36.565l.006.023a.671.671,0,0,0,.634.392.082.082,0,0,1,.081.083.08.08,0,0,1-.079.084,1.019,1.019,0,0,1-.492-.143,1.02,1.02,0,0,0-.028.787.084.084,0,0,1,.077.073,1.326,1.326,0,0,1,.007.191.67.67,0,0,0,.036.291.548.548,0,0,0,.061.1.512.512,0,0,1,.071.128,2.564,2.564,0,0,0,1.049-.985.511.511,0,0,0,.06-.273.716.716,0,0,1,.087-.367.509.509,0,0,1,.1-.114.383.383,0,0,0,.068-.076c0-.011,0-.035,0-.064a.307.307,0,0,1,.069-.21.342.342,0,0,1,.121-.088c.039-.02.056-.03.058-.042s0-.015-.033-.039a.218.218,0,0,1-.085-.088.894.894,0,0,1-.024-.489.318.318,0,0,1,.179-.17c.019-.01.041-.02.063-.034a.228.228,0,0,0,.1-.138l.022-.061a.458.458,0,0,1,.295-.258.562.562,0,0,0,.17-.091,1.189,1.189,0,0,0,.255-.616l.02-.1a.746.746,0,0,1,.418-.51l.044-.025a.548.548,0,0,1,.121-.06.157.157,0,0,1,.114.028.671.671,0,0,0,.1-.063c.034-.022.069-.045.111-.067,0,0,.322-.15.444-.043.012.008.05.04.068.18a.47.47,0,0,1-.035.283.177.177,0,0,1-.207.061l-.028-.006a.474.474,0,0,0-.01.172.509.509,0,0,1-.03.26.328.328,0,0,1-.152.131.427.427,0,0,0-.052.028.726.726,0,0,0-.149.154c-.02.026-.041.052-.065.081s-.059.055-.087.08a.5.5,0,0,0-.124.132c-.009.027-.015.064-.024.1a.563.563,0,0,1-.035.125c.033-.035.063-.073.093-.111a1.445,1.445,0,0,1,.3-.264.931.931,0,0,0,.3-.289.431.431,0,0,0,.029-.118.663.663,0,0,1,.029-.132,1.294,1.294,0,0,1,.2-.341l.042-.059a1.576,1.576,0,0,1,.139-.18.61.61,0,0,0,.18-.314c0-.03,0-.06,0-.091a.574.574,0,0,1,.048-.25,1.083,1.083,0,0,1,.193-.234,1.465,1.465,0,0,0,.121-.128.813.813,0,0,0,.155-.3,1.879,1.879,0,0,0,.248-.435c.03-.028.061-.053.091-.077a1.409,1.409,0,0,0,.108-.094,3.855,3.855,0,0,1,.443-.379c.085-.066.17-.131.254-.2a1.174,1.174,0,0,0,.18-.186.963.963,0,0,1,.122-.118.554.554,0,0,0,.138-.147.873.873,0,0,0,.031-.417,2.1,2.1,0,0,1-.01-.232l0-.053c.01-.127.02-.264.039-.4a1.105,1.105,0,0,0,.031-.3.266.266,0,0,0-.04-.1.5.5,0,0,1-.052-.122,1.38,1.38,0,0,1-.038-.378,1.341,1.341,0,0,0-.024-.3,1,1,0,0,1-.032-.453.508.508,0,0,1,.046-.143.388.388,0,0,0,.035-.107.3.3,0,0,0,.005-.057l-.008-.007a.272.272,0,0,1-.034-.053.849.849,0,0,0,.014-.222l0,0a.968.968,0,0,1,.165-.191c.051-.049.147-.138.141-.172,0-.01-.018-.032-.075-.06a.085.085,0,0,1-.04-.109c.036-.09.141-.108.234-.124a.406.406,0,0,0,.108-.027,1.281,1.281,0,0,0,.226-.162.22.22,0,0,0,.093-.06.328.328,0,0,0,.065-.141l0-.014a.127.127,0,0,1,.033.017h0c.026-.01.028-.012.034-.023a.138.138,0,0,0,0-.049.258.258,0,0,1,.013-.157.512.512,0,0,1,.329-.239.548.548,0,0,0,.226-.126l0-.012a.2.2,0,0,1,.032-.124.652.652,0,0,1,.215-.154l.023-.012c.042-.022.086-.041.128-.061s.083-.037.123-.059a.96.96,0,0,0,.259-.2l.069-.067a2.123,2.123,0,0,1,.271-.224c.049-.038.1-.075.152-.116a.514.514,0,0,1,.339-.11.8.8,0,0,0,.18-.023.253.253,0,0,0,.109-.109.349.349,0,0,1,.17-.151,1.183,1.183,0,0,1,.386-.01c.062,0,.117.006.151,0a.3.3,0,0,1,.266.151c.039.052.058.078.123.078a.122.122,0,0,0,.1-.076.088.088,0,0,0,.007-.08s-.013-.007-.03,0a.081.081,0,0,1-.076-.032.085.085,0,0,1-.011-.082.9.9,0,0,1,.729-.529,1.261,1.261,0,0,0,.423-.128,1.731,1.731,0,0,0-.276.066c-.04.012-.071.02-.086.023a.088.088,0,0,1-.067-.019.085.085,0,0,1-.029-.064c0-.025,0-.05,0-.071a.335.335,0,0,1,.08-.293c.013-.027.064-.048.12-.073a.56.56,0,0,0,.066-.034c.022-.013.04-.029.058-.042s.064-.048.1-.072a1.151,1.151,0,0,0,.283.078l-.035.01.078,0,.02,0a.835.835,0,0,0,.277-.021.094.094,0,0,1,.051.029.084.084,0,0,1,.016.078.217.217,0,0,1-.025.061c.029-.02.057-.043.086-.067a.617.617,0,0,1,.406-.176.082.082,0,0,1,.08.073.2.2,0,0,1-.032.137,1.456,1.456,0,0,0,.3-.045.282.282,0,0,0,.09-.061.371.371,0,0,1,.165-.093.341.341,0,0,1,.166.036.363.363,0,0,0,.081.027.822.822,0,0,0,.212-.011l.072-.01a4.42,4.42,0,0,1,.564.01l.052,0c.183.013.525.033.66-.089.052-.041.052-.057.05-.12a.6.6,0,0,1,.008-.115.659.659,0,0,1,.17-.33l.034-.043a.55.55,0,0,0,.07-.129.577.577,0,0,1,.079-.142c.116-.1.2-.056.263-.08a.639.639,0,0,0,.222-.148.828.828,0,0,1,.239-.165.471.471,0,0,1,.12-.032c0,.005.009,0,.018-.04a1.336,1.336,0,0,0-.03-.359.369.369,0,0,0-.045-.113.361.361,0,0,1-.051-.124c0-.013,0-.024,0-.036a.9.9,0,0,0,.236-.335.164.164,0,0,0,.076-.2.085.085,0,0,1,.034-.109,1.376,1.376,0,0,0,.237-.163,1.113,1.113,0,0,0,.21-.259c.021-.033.044-.068.07-.106a.356.356,0,0,1,.13-.11.145.145,0,0,0,.049-.037.4.4,0,0,0,.073-.24.982.982,0,0,1,.029-.176,2.285,2.285,0,0,1,.4-.671,2.264,2.264,0,0,0,.357-.572.587.587,0,0,0-.022-.468c-.015-.044-.03-.09-.044-.137a.523.523,0,0,1,.033-.385.582.582,0,0,0,.048-.185.34.34,0,0,0,0-.091.084.084,0,0,1-.052-.065l0-.026a.106.106,0,0,0-.022-.015,1.573,1.573,0,0,0,0-.193l.009,0,.023.013a1.041,1.041,0,0,1,.291-.5,1.618,1.618,0,0,0,.1-.124,1.267,1.267,0,0,1,.187-.21.307.307,0,0,1,.114-.038.216.216,0,0,0,.07-.018c0-.012-.035-.07-.052-.1a.46.46,0,0,1-.057-.133,1.513,1.513,0,0,1,.027-.465c.01-.06.018-.12.024-.174a.5.5,0,0,1,.069-.253c.012-.024.027-.053.042-.088a1.136,1.136,0,0,0,.051-.39,2.531,2.531,0,0,1,.016-.258,1.446,1.446,0,0,1,.133-.351l.02-.046a.6.6,0,0,0,.033-.383l-.008-.068a4.552,4.552,0,0,1-.043-.788v-.133a1.016,1.016,0,0,0-.02-.156q-.013-.064-.021-.125a1.418,1.418,0,0,1,.035-.435,1.589,1.589,0,0,0,.039-.3.943.943,0,0,0-.1-.5.277.277,0,0,0-.04-.054c-.052-.047-.042-.089-.029-.153l.007-.036a.672.672,0,0,1,.063-.138.385.385,0,0,0,.052-.125.781.781,0,0,0,.018-.156c0-.02,0-.042,0-.065a.084.084,0,0,1,0-.079,1.608,1.608,0,0,0,.064-.179.848.848,0,0,1,.211-.414.284.284,0,0,1,.292-.033.272.272,0,0,0,.127.019.546.546,0,0,0,.2-.095,1.1,1.1,0,0,1,.139-.076c.125-.056.132-.08.166-.211.009-.031.016-.066.028-.1a3.061,3.061,0,0,1,.526-.946,5.285,5.285,0,0,0,.352-.534.686.686,0,0,1-.124.05,1.136,1.136,0,0,0,.158-.267,2.447,2.447,0,0,0,.463-.488c.031-.035.058-.069.084-.1a1.28,1.28,0,0,1,.193-.213c.032-.023.059-.038.084-.054a.307.307,0,0,0,.136-.118c.016-.033.026-.059.035-.08a.363.363,0,0,1,.13-.181l.014-.012a.653.653,0,0,0,.236-.172l0,0,.019,0a.356.356,0,0,0,.132-.035c.058-.035.058-.058.057-.125a.324.324,0,0,1,.065-.228.35.35,0,0,1,.145-.1.28.28,0,0,0,.115-.074,1.7,1.7,0,0,0,.085-.159.889.889,0,0,1,.162-.261c.053-.057.118-.116.187-.178a1.291,1.291,0,0,0,.3-.331,1.717,1.717,0,0,0,.07-.218,1.093,1.093,0,0,1,.184-.431l-.016,0-.033,0a.974.974,0,0,0,.073-.159l.037.009a2.637,2.637,0,0,1,.23-.564l.063-.128a3.429,3.429,0,0,0,.1-.97l-.014-.008a.876.876,0,0,0,.076-.268c.007-.022.017-.042.024-.062a.278.278,0,0,0,.029-.086.189.189,0,0,0-.034-.091A.3.3,0,0,1,67.5,830.669Z" transform="translate(680 -800.75)" fill="none" stroke="#fff" stroke-linejoin="round" stroke-width="2"/>
  </g>
</svg>
