<svg xmlns="http://www.w3.org/2000/svg" xmlns:xlink="http://www.w3.org/1999/xlink" width="81.5" height="81.5" viewBox="0 0 81.5 81.5">
  <defs>
    <clipPath id="clip-path">
      <rect id="Ret창ngulo_432" data-name="Ret창ngulo 432" width="55.692" height="54.544" fill="#fff" stroke="#fff" stroke-width="1"/>
    </clipPath>
  </defs>
  <g id="Grupo_700" data-name="Grupo 700" transform="translate(-89.25 -2449.25)">
    <rect id="Ret창ngulo_431" data-name="Ret창ngulo 431" width="80" height="80" transform="translate(90 2450)" fill="none" stroke="#fff" stroke-linejoin="round" stroke-width="1.5"/>
    <g id="Grupo_680" data-name="Grupo 680" transform="translate(103.308 2464.456)">
      <g id="Grupo_679" data-name="Grupo 679" clip-path="url(#clip-path)">
        <path id="Caminho_3129" data-name="Caminho 3129" d="M335.682,231.572l5.091.281a.852.852,0,0,0,.905-.811.863.863,0,0,0-.811-.9l-6.553-.356-.022,0a.822.822,0,0,0-.57.1.877.877,0,0,0-.221.184c-.015.017-.025.03-.036.043l-.007.009a.792.792,0,0,0-.078.122l-2.706,5.334a.849.849,0,0,0-.049.655.861.861,0,0,0,.43.5.92.92,0,0,0,.39.1.858.858,0,0,0,.766-.478l1.984-3.913L345.664,252.3H327.525a.859.859,0,1,0,0,1.718h19.626a.858.858,0,0,0,.748-1.288Z" transform="translate(-292.32 -205.608)" fill="#fff" stroke="#fff" stroke-width="1"/>
        <path id="Caminho_3130" data-name="Caminho 3130" d="M26.207,269.374a.858.858,0,0,0-1.195-.2.861.861,0,0,0-.207,1.2l3.322,4.7H2.346L13.067,256.5a.861.861,0,0,0-.316-1.179.848.848,0,0,0-.423-.112.863.863,0,0,0-.748.432L.115,275.5a.858.858,0,0,0,.743,1.288H28.14L24.8,281.57a.859.859,0,0,0,.7,1.35.861.861,0,0,0,.706-.367l4.281-6.133a.862.862,0,0,0,0-.988Z" transform="translate(0 -228.375)" fill="#fff" stroke="#fff" stroke-width="1"/>
        <path id="Caminho_3131" data-name="Caminho 3131" d="M112.719,23.954a.854.854,0,0,0,.384.474.875.875,0,0,0,.156.065l.019.006.051.014c.029.007.055.012.082.015l.027,0a.712.712,0,0,0,.1.006c.042,0,.085,0,.127,0l6.667-.874a.867.867,0,0,0,.738-.968.857.857,0,0,0-.967-.741l-4.958.656L126.733,2.535l10.728,18.581a.857.857,0,0,0,.525.406.845.845,0,0,0,.648-.086.864.864,0,0,0,.316-1.177L127.48.388A.848.848,0,0,0,126.738,0h0a.852.852,0,0,0-.744.388l-12.267,21.24-1.542-4.422a.859.859,0,0,0-.445-.5.844.844,0,0,0-.362-.083.826.826,0,0,0-.282.05.861.861,0,0,0-.534,1.1Z" transform="translate(-98.893)" fill="#fff" stroke="#fff" stroke-width="1"/>
      </g>
    </g>
  </g>
</svg>
