<svg xmlns="http://www.w3.org/2000/svg" width="82.241" height="81.806" viewBox="0 0 82.241 81.806">
  <g id="Grupo_558" data-name="Grupo 558" transform="translate(-679.75 -1226.75)">
    <rect id="Retângulo_29" data-name="Retângulo 29" width="80.241" height="79.806" transform="translate(680.75 1227.75)" fill="none" stroke="blue" stroke-linejoin="round" stroke-width="2"/>
    <path id="Caminho_5" data-name="Caminho 5" d="M62.38,43.059a15.156,15.156,0,0,0,0-21.464c-5.94-5.926-14.343-3.6-20.283,2.323-5.939-5.926-16.8-8.249-22.735-2.323a15.156,15.156,0,0,0,0,21.464l4.429,4.419M46.548,36.93,57.655,48.014a3.034,3.034,0,1,0,4.3-4.286L46.392,28.2,38.97,35.61a3.033,3.033,0,0,1-4.294-4.285L42.1,23.918m-.188,16.954L52.845,51.785a3.033,3.033,0,1,1-4.294,4.285l-.407-.4m3.671-13.479L57.14,47.5a3.034,3.034,0,1,1-4.295,4.286L41.909,40.872m5.26,16.086-5.325,5.314a3.033,3.033,0,0,1-4.3-4.285l5.326-5.314a3.033,3.033,0,0,1,4.294,4.285Zm-4.294-4.285-5.326,5.314A3.033,3.033,0,0,1,33.255,53.7l5.325-5.314a3.034,3.034,0,1,1,4.295,4.286ZM38.58,48.387,33.255,53.7a3.033,3.033,0,1,1-4.294-4.285L34.286,44.1a3.033,3.033,0,1,1,4.294,4.285ZM34.286,44.1l-5.325,5.314a3.033,3.033,0,1,1-4.294-4.286l5.325-5.313A3.033,3.033,0,1,1,34.286,44.1Z" transform="translate(680 1227)" fill="none" stroke="blue" stroke-linejoin="round" stroke-width="2"/>
  </g>
</svg>
