<svg xmlns="http://www.w3.org/2000/svg" width="81.5" height="81.5" viewBox="0 0 81.5 81.5">
  <g id="Grupo_699" data-name="Grupo 699" transform="translate(-199.25 -2449.25)">
    <rect id="Retângulo_25" data-name="Retângulo 25" width="80" height="80" transform="translate(200 2450)" fill="none" stroke="#fff" stroke-linejoin="round" stroke-width="1.5"/>
    <g id="noun-water-drop-773762" transform="translate(-24.78 2341.752)">
      <path id="Caminho_3126" data-name="Caminho 3126" d="M264.521,178.248a19.774,19.774,0,0,1-19.741-19.741c0-10.559,18.223-38,19-39.164l.741-1.095.741,1.095c.777,1.165,19,28.587,19,39.164a19.749,19.749,0,0,1-19.739,19.741Zm0-56.786c-3.461,5.315-17.975,28.163-17.975,37.045a17.975,17.975,0,0,0,35.95,0C282.5,149.626,268,126.778,264.521,121.462Z" transform="translate(0)" fill="#fff"/>
      <path id="Caminho_3127" data-name="Caminho 3127" d="M306.97,334.281a.885.885,0,0,0-1.147.477,7.771,7.771,0,0,1-14.814-1.448l1.466.848a.878.878,0,0,0,.884-1.518l-3.373-1.942a.872.872,0,0,0-1.2.318l-1.907,3.3a.872.872,0,0,0,.317,1.2.8.8,0,0,0,.441.124.876.876,0,0,0,.76-.441l.883-1.518a9.529,9.529,0,0,0,18.169,1.73.856.856,0,0,0-.477-1.13Z" transform="translate(-34.096 -172.472)" fill="#fff"/>
      <path id="Caminho_3128" data-name="Caminho 3128" d="M323,292.271a.872.872,0,0,0-1.2.317l-.883,1.519a9.529,9.529,0,0,0-18.169-1.73.879.879,0,0,0,1.624.671A7.771,7.771,0,0,1,319.18,294.5l-1.466-.848a.878.878,0,1,0-.884,1.518l3.373,1.942a.979.979,0,0,0,.441.124,1.038,1.038,0,0,0,.229-.035.826.826,0,0,0,.529-.406l1.907-3.3a.89.89,0,0,0-.316-1.219Z" transform="translate(-47.032 -136.624)" fill="#fff"/>
    </g>
  </g>
</svg>
