<svg xmlns="http://www.w3.org/2000/svg" width="82" height="82" viewBox="0 0 82 82">
  <g id="Grupo_423" data-name="Grupo 423" transform="translate(-999.991 1)">
    <rect id="Ret창ngulo_43" data-name="Ret창ngulo 43" width="80" height="80" transform="translate(1000.991)" fill="none" stroke="#fff" stroke-linecap="round" stroke-linejoin="round" stroke-width="2"/>
    <rect id="Ret창ngulo_44" data-name="Ret창ngulo 44" width="54.338" height="24.926" transform="translate(1013.821 38.74)" fill="none" stroke="#fff" stroke-linecap="round" stroke-linejoin="round" stroke-width="2"/>
    <ellipse id="Elipse_1" data-name="Elipse 1" cx="6.289" cy="6.096" rx="6.289" ry="6.096" transform="translate(1034.702 45.119)" fill="none" stroke="#fff" stroke-linecap="round" stroke-linejoin="round" stroke-width="2"/>
    <path id="Caminho_29" data-name="Caminho 29" d="M333.551,527.691a8.676,8.676,0,0,0,8.773-8.578" transform="translate(680 -480.589)" fill="none" stroke="#fff" stroke-linecap="round" stroke-linejoin="round" stroke-width="2"/>
    <path id="Caminho_30" data-name="Caminho 30" d="M388.43,527.691a8.676,8.676,0,0,1-8.773-8.578" transform="translate(680 -480.589)" fill="none" stroke="#fff" stroke-linecap="round" stroke-linejoin="round" stroke-width="2"/>
    <path id="Caminho_31" data-name="Caminho 31" d="M333.551,536.005a8.676,8.676,0,0,1,8.773,8.578" transform="translate(680 -480.671)" fill="none" stroke="#fff" stroke-linecap="round" stroke-linejoin="round" stroke-width="2"/>
    <path id="Caminho_32" data-name="Caminho 32" d="M388.43,536.005a8.676,8.676,0,0,0-8.773,8.578" transform="translate(680 -480.671)" fill="none" stroke="#fff" stroke-linecap="round" stroke-linejoin="round" stroke-width="2"/>
    <path id="Caminho_33" data-name="Caminho 33" d="M342.484,513.279l11.225-11.167,10.2,10.152,15.152-15.075" transform="translate(680 -480.492)" fill="none" stroke="#fff" stroke-linecap="round" stroke-linejoin="round" stroke-width="2"/>
    <path id="Caminho_34" data-name="Caminho 34" d="M373.9,497.353l5.168-.164-.213,5.188" transform="translate(680 -480.479)" fill="none" stroke="#fff" stroke-linecap="round" stroke-linejoin="round" stroke-width="2"/>
  </g>
</svg>
