<svg xmlns="http://www.w3.org/2000/svg" width="80" height="80" viewBox="0 0 80 80">
  <g id="Grupo_397" data-name="Grupo 397" transform="translate(-117)">
    <g id="Grupo_396" data-name="Grupo 396" transform="translate(117)">
      <path id="Caminho_2530" data-name="Caminho 2530" d="M4899,1912.515V1885.1h6.814l15.536,15.946v11.471Z" transform="translate(-4881.998 -1847.515)" fill="none" stroke="#fff" stroke-linejoin="bevel" stroke-width="2"/>
      <path id="Caminho_2531" data-name="Caminho 2531" d="M4913.122,1893.915v-8.545l7.072-.041,15.278,15.683v11.471h-15.781" transform="translate(-4880.339 -1847.482)" fill="none" stroke="#fff" stroke-linejoin="bevel" stroke-width="2"/>
      <path id="Caminho_2532" data-name="Caminho 2532" d="M4926.939,1896.507l2.3-27.507h11.175l2.827,45.883h-9.807" transform="translate(-4878.715 -1849.883)" fill="none" stroke="#fff" stroke-linejoin="bevel" stroke-width="2"/>
      <g id="Retângulo_248" data-name="Retângulo 248" fill="none" stroke="#fff" stroke-linejoin="bevel" stroke-width="2">
        <rect width="80" height="80" stroke="none"/>
        <rect x="1" y="1" width="78" height="78" fill="none"/>
      </g>
      <path id="Caminho_2533" data-name="Caminho 2533" d="M4937.868,1863.6c2.623-4.165.735-5.444.735-5.444" transform="translate(-4880 -1847.097)" fill="none" stroke="#fff" stroke-width="2"/>
      <path id="Caminho_2534" data-name="Caminho 2534" d="M4933.162,1865.5c4.525-5.925-2.03-4.253,0-8.023" transform="translate(-4879 -1849)" fill="none" stroke="#fff" stroke-width="2"/>
    </g>
  </g>
</svg>
