<svg xmlns="http://www.w3.org/2000/svg" width="90" height="60.315" viewBox="0 0 90 60.315">
  <g id="Grupo_566" data-name="Grupo 566" transform="translate(0)">
    <path id="Caminho_2630" data-name="Caminho 2630" d="M198.126,203.982a1.467,1.467,0,0,0-.07-.347,1.531,1.531,0,0,0-.062-.218,3.846,3.846,0,0,0-.342-.469c-.017-.016-.025-.038-.043-.054l-21.157-17.878a9.608,9.608,0,0,0-9.238-1.817,13.989,13.989,0,0,0-7.123,5.94,1.494,1.494,0,0,0,2.507,1.627,11.1,11.1,0,0,1,5.586-4.739,6.584,6.584,0,0,1,6.339,1.273l18.037,15.242H113.979L132.011,187.3a6.592,6.592,0,0,1,6.341-1.273,11.078,11.078,0,0,1,5.586,4.739,1.494,1.494,0,1,0,2.507-1.627,13.973,13.973,0,0,0-7.122-5.94,9.6,9.6,0,0,0-9.24,1.817l-20.872,17.641a1.493,1.493,0,0,0-.927,1.379v6.6l-.148,8.519a11.889,11.889,0,0,0,3.459,8.352,11.744,11.744,0,0,0,8.378,3.46l14.623-.255a12.722,12.722,0,0,0,12.025-9.259l3.738-13.819a2.905,2.905,0,0,1,2.776-2.105,2.855,2.855,0,0,1,2.762,2.228l2.773,11.071a17.465,17.465,0,0,0,5.387,9.085,10.138,10.138,0,0,0,6.761,2.582h18.414a8.915,8.915,0,0,0,8.9-8.9V204.036c0-.019-.009-.035-.01-.054Zm-86.854,6.694.089-5.146h6.107V211h-6.2Zm36.209-3.842-3.738,13.821a9.688,9.688,0,0,1-3.223,4.891,9.8,9.8,0,0,1-5.973,2.178l-14.6.255a8.77,8.77,0,0,1-6.241-2.585,8.871,8.871,0,0,1-2.583-6.213l.09-5.2h7.748a1.5,1.5,0,0,0,1.494-1.494v-6.96H148.1a5.821,5.821,0,0,0-.616,1.305Zm47.668,14.756a5.923,5.923,0,0,1-5.916,5.916H170.819a7.144,7.144,0,0,1-4.768-1.822,14.48,14.48,0,0,1-4.473-7.558L158.8,207.045a5.862,5.862,0,0,0-.645-1.514H195.15Z" transform="translate(-108.137 -170.652)" fill="blue"/>
    <path id="Caminho_2631" data-name="Caminho 2631" d="M135.93,313.04a1.305,1.305,0,1,0,1.305,1.305A1.305,1.305,0,0,0,135.93,313.04Zm0,1.68a.375.375,0,1,1,.376-.375A.375.375,0,0,1,135.93,314.72Z" transform="translate(-129.696 -276.735)" fill="blue"/>
    <path id="Caminho_2632" data-name="Caminho 2632" d="M323.27,179.541a1.494,1.494,0,0,0,1.078-2.528,9.611,9.611,0,0,0-13.59-.281,1.494,1.494,0,1,0,2.069,2.156,6.466,6.466,0,0,1,4.723-1.842,6.591,6.591,0,0,1,4.643,2.036,1.485,1.485,0,0,0,1.078.459Z" transform="translate(-272.684 -163.61)" fill="blue"/>
    <path id="Caminho_2633" data-name="Caminho 2633" d="M311.212,153.089a1.494,1.494,0,0,0,1.078-2.528,14.856,14.856,0,0,0-20.98-.434,1.494,1.494,0,1,0,2.069,2.156,11.868,11.868,0,0,1,16.755.347,1.487,1.487,0,0,0,1.078.459Z" transform="translate(-256.855 -140.776)" fill="blue"/>
    <path id="Caminho_2634" data-name="Caminho 2634" d="M273.935,125.647a16.781,16.781,0,0,1,12.177-4.75,16.968,16.968,0,0,1,11.969,5.25,1.494,1.494,0,1,0,2.156-2.068,20.085,20.085,0,0,0-28.37-.587,1.494,1.494,0,1,0,2.069,2.156Z" transform="translate(-241.029 -117.913)" fill="blue"/>
    <path id="Caminho_2635" data-name="Caminho 2635" d="M329.517,199.4a1.494,1.494,0,0,0,1.8,2.382,2.281,2.281,0,0,1,2.749-.011,1.494,1.494,0,1,0,1.816-2.372,5.286,5.286,0,0,0-6.37,0Z" transform="translate(-287.855 -183.364)" fill="blue"/>
  </g>
</svg>
