<svg xmlns="http://www.w3.org/2000/svg" width="81.263" height="82.263" viewBox="0 0 81.263 82.263">
  <g id="Grupo_21" data-name="Grupo 21" transform="translate(-1000.238 -1386.75)">
    <rect id="Retângulo_34" data-name="Retângulo 34" width="79.263" height="80.263" transform="translate(1001.238 1387.75)" fill="none" stroke="#fff" stroke-linejoin="round" stroke-width="2"/>
    <path id="Caminho_12" data-name="Caminho 12" d="M378.488,181.158v8.589a6.482,6.482,0,0,0,6.425,6.538m-19.8,6.568h4.447a5.165,5.165,0,0,1,5.118,5.209v5.044a5.118,5.118,0,1,0,10.235,0v-22.19a7.849,7.849,0,0,0-2.238-5.5l-8.255-8.4m-33.635,19.267h24.328M336.358,224.6H369.54m-4.427-.025V182.9a5.518,5.518,0,0,0-5.469-5.565h-13.39a5.518,5.518,0,0,0-5.469,5.565V224.58" transform="translate(680 1227)" fill="none" stroke="#fff" stroke-linejoin="round" stroke-width="2"/>
  </g>
</svg>
