<svg xmlns="http://www.w3.org/2000/svg" width="82.39" height="82" viewBox="0 0 82.39 82">
  <g id="Grupo_422" data-name="Grupo 422" transform="translate(-839.601 1)">
    <rect id="Retângulo_38" data-name="Retângulo 38" width="80.39" height="80" transform="translate(840.601)" fill="none" stroke="#fff" stroke-linecap="round" stroke-linejoin="round" stroke-width="2"/>
    <path id="Caminho_24" data-name="Caminho 24" d="M184.915,504.7h17.579m-8.79,6.5V504.87m-13.416,23.2V511.2m40.461,21.479a4.713,4.713,0,0,0,1.362,3.153,5.2,5.2,0,0,0,3.309,1.3,5.074,5.074,0,0,0,3.311-1.113,4.5,4.5,0,0,0,1.362-3.339,11.456,11.456,0,0,0-1.168-3.895,40.7,40.7,0,0,0-2.239-4.361,1.449,1.449,0,0,0-2.53,0,40.331,40.331,0,0,0-2.24,4.361A11.383,11.383,0,0,0,220.749,532.678ZM192.739,511.2H175.893a4.816,4.816,0,0,0-3.113,1.263,4.671,4.671,0,0,0-1.282,3.068V521.4a4.344,4.344,0,0,0,2.655,3.97l6.135,2.707v1.894a4.663,4.663,0,0,0,1.281,3.069,4.8,4.8,0,0,0,3.112,1.262H208.4a5.767,5.767,0,0,0,4.393-1.984l16.756-18.588a1.869,1.869,0,0,0,.183-2.076,1.809,1.809,0,0,0-1.923-.812l-15.29,3.249-4.578-2.256a5.955,5.955,0,0,0-2.654-.632H192.739Z" transform="translate(680 -480.916)" fill="none" stroke="#fff" stroke-linecap="round" stroke-linejoin="round" stroke-width="2"/>
  </g>
</svg>
