<svg xmlns="http://www.w3.org/2000/svg" xmlns:xlink="http://www.w3.org/1999/xlink" width="250" height="105" viewBox="0 0 250 105">
  <defs>
    <clipPath id="clip-path">
      <rect id="Retângulo_192" data-name="Retângulo 192" width="250" height="105" fill="none" stroke="#707070" stroke-width="1"/>
    </clipPath>
    <clipPath id="clip-path-2">
      <rect id="Retângulo_16" data-name="Retângulo 16" width="209.521" height="75.317" fill="#004415"/>
    </clipPath>
  </defs>
  <g id="Grupo_de_máscara_2" data-name="Grupo de máscara 2" clip-path="url(#clip-path)">
    <g id="Grupo_3" data-name="Grupo 3" transform="translate(19.643 15.04)">
      <path id="Caminho_1" data-name="Caminho 1" d="M27.581,0,5.8,51.554H5.243L9.728,17.3H0V58.078H12.447L35.891,2.594h.291L20.91,75.317H39.783L61.54,23.826h.555L57.609,58.077h9.728V17.3H54.89L31.473,72.723h-.291L46.454,0Z" transform="translate(0 0)" fill="#004415"/>
      <g id="Grupo_2" data-name="Grupo 2" transform="translate(0 0)">
        <g id="Grupo_1" data-name="Grupo 1" clip-path="url(#clip-path-2)">
          <path id="Caminho_2" data-name="Caminho 2" d="M702.017,130.112l-8.57,40.808h-9.736l8.57-40.808Zm51.1,35.27a19.6,19.6,0,0,0-.525,5.538h-9.328a17.028,17.028,0,0,1,.35-5.771l1.282-5.83c.933-4.256.408-5.771-3.265-5.771H739.78L736.1,170.921h-9.619l8.57-40.808h10.9c11.485,0,14.284,5.13,12.651,11.426-.984,4.038-3.622,7.156-9.222,8.09l-.047.241c3.635.531,6.387,2.9,5.13,9.042ZM749.1,141.305c.7-3.265-1.283-4.664-3.731-4.664h-2l-2.026,9.561h1.932c3.673,0,5.188-1.632,5.83-4.9m-68.069-11.193-14.484,34.279h-.233l4.489-34.279h-9.736V170.92h12.457l17.243-40.808Zm44.715,30.548c-1.4,6-5.888,10.26-16.907,10.26H697.47l8.569-40.808h11.077c10.086,0,13.467,4.547,11.893,11.66-.975,4.434-4.393,7.4-9.233,8.086l-.04.2c4.3.619,7.389,4.482,6.008,10.6m-9.386-24.019h-1.995L712.37,146.2h2.181c2.507,0,4.489-1.166,5.13-4.722.758-3.556-.641-4.839-3.323-4.839m-3.323,16.906h-2.2l-2.261,10.843h2.009c3.09,0,4.839-1.516,5.713-5.247.816-3.731-.758-5.6-3.265-5.6m57.352-23.436-17.243,40.808h9.736l14.484-34.279h.233l-4.489,34.279h9.736V130.112Z" transform="translate(-573.324 -112.843)" fill="#004415"/>
        </g>
      </g>
    </g>
  </g>
</svg>
